<svg width="24" height="24" viewBox="0 0 24 24"  >
<g id="calendar">
<path id="calendar_fill__$secondary" d="M21.0012 13.3903C20.1382 12.8272 19.1073 12.5 18 12.5C14.9624 12.5 12.5 14.9624 12.5 18C12.5 19.1068 12.8269 20.1372 13.3895 21H5.00122C3.89665 21 3.00121 20.1046 3.00122 19L3.00129 6.99999C3.00129 5.89542 3.89672 5 5.00129 5H19.0012C20.1058 5 21.0012 5.89543 21.0012 7V13.3903Z"  />
<g id="calendar_frame__$primary">
<path d="M8.25128 3C8.25128 2.58579 7.91549 2.25 7.50128 2.25C7.08706 2.25 6.75128 2.58579 6.75128 3V4.25H5.00129C3.48251 4.25 2.25129 5.48121 2.25129 6.99999L2.25122 19C2.25121 20.5188 3.48243 21.75 5.00122 21.75H13.9766C13.5672 21.311 13.2289 20.8049 12.9798 20.25H5.00122C4.31086 20.25 3.75122 19.6903 3.75122 19L3.75129 6.99999C3.75129 6.30964 4.31093 5.75 5.00129 5.75H6.75128V7C6.75128 7.41421 7.08706 7.75 7.50128 7.75C7.91549 7.75 8.25128 7.41421 8.25128 7V5.75H15.7512V7C15.7512 7.41421 16.087 7.75 16.5012 7.75C16.9154 7.75 17.2512 7.41421 17.2512 7V5.75H19.0012C19.6916 5.75 20.2512 6.30964 20.2512 7V12.9803C20.8061 13.2296 21.3122 13.5682 21.7512 13.9777V7C21.7512 5.48122 20.52 4.25 19.0012 4.25H17.2512V3C17.2512 2.58579 16.9154 2.25 16.5012 2.25C16.087 2.25 15.7512 2.58579 15.7512 3V4.25H8.25128V3Z"  />
<path d="M12.5972 16.9653H7.20325C6.78904 16.9653 6.45325 17.3011 6.45325 17.7153C6.45325 18.1295 6.78904 18.4653 7.20325 18.4653H12.5194C12.5066 18.3119 12.5 18.1567 12.5 18C12.5 17.6463 12.5334 17.3004 12.5972 16.9653Z"  />
</g>
<path id="ex_circle__$primary" fill-rule="evenodd" clip-rule="evenodd" d="M18 22C20.2091 22 22 20.2091 22 18C22 15.7909 20.2091 14 18 14C15.7909 14 14 15.7909 14 18C14 20.2091 15.7909 22 18 22ZM18.5 16C18.5 15.7239 18.2761 15.5 18 15.5C17.7239 15.5 17.5 15.7239 17.5 16V18C17.5 18.2761 17.7239 18.5 18 18.5C18.2761 18.5 18.5 18.2761 18.5 18V16ZM18.5 20C18.5 19.7239 18.2761 19.5 18 19.5C17.7239 19.5 17.5 19.7239 17.5 20V20.01C17.5 20.2861 17.7239 20.51 18 20.51C18.2761 20.51 18.5 20.2861 18.5 20.01V20Z"  />
</g>
</svg>
